<svg xmlns="http://www.w3.org/2000/svg" width="860" height="666" viewBox="0 0 860 666" version="1.1">
	<path d="M 484.500 42.699 C 463.739 45.459, 444.034 64.091, 439.956 84.817 C 437.982 94.853, 439.128 107.063, 442.891 116.093 C 448.202 128.836, 462.283 142.231, 474.959 146.598 C 487.967 151.080, 503.533 150.026, 515.956 143.822 C 525.421 139.096, 535.988 128.344, 540.477 118.871 C 550.464 97.795, 546.961 76.440, 530.710 59.331 C 518.331 46.299, 501.900 40.385, 484.500 42.699 M 479.424 63.057 C 465.505 68.412, 456.048 83.558, 457.253 98.567 C 458.229 110.726, 465.109 121.069, 476.232 127.101 C 482.109 130.288, 483.093 130.500, 492 130.500 C 500.215 130.500, 502.274 130.137, 507.220 127.819 C 524.825 119.568, 532.463 97.983, 523.980 80.459 C 520.584 73.443, 515.404 68.340, 507.833 64.553 C 501.399 61.334, 499.969 61.005, 492.616 61.052 C 487.071 61.088, 482.892 61.723, 479.424 63.057 M 481.907 75.326 C 465.961 83.743, 465.080 105.973, 480.321 115.395 C 489.217 120.895, 499.645 120.019, 507.287 113.129 C 517.210 104.183, 517.743 88.834, 508.455 79.545 C 501.610 72.701, 490.290 70.902, 481.907 75.326 M 398 110.735 C 338.378 141.129, 297.917 161.642, 285.750 167.644 C 278.738 171.104, 273 174.098, 273 174.299 C 273 174.499, 275.246 176.119, 277.992 177.898 C 286.197 183.214, 293.691 190.724, 299.408 199.358 C 308.301 212.789, 312.751 224.878, 313.723 238.250 C 314.032 242.512, 314.721 246, 315.253 246 C 315.786 246, 319.118 243.975, 322.659 241.500 C 326.199 239.025, 329.324 237, 329.602 237 C 329.880 237, 335.068 233.625, 341.130 229.500 C 347.192 225.375, 352.364 222, 352.623 222 C 352.882 222, 358.660 218.287, 365.462 213.750 C 372.264 209.213, 387.876 198.975, 400.155 191 C 412.434 183.025, 429.810 171.644, 438.767 165.708 C 447.725 159.773, 455.717 154.662, 456.527 154.351 C 458.777 153.488, 458.305 152.719, 453.854 150 C 447.590 146.173, 438.607 135.747, 434.206 127.197 C 429.374 117.807, 428.203 114.258, 426.682 104.387 L 425.500 96.716 398 110.735 M 538.915 142.878 C 529.887 152.102, 519.920 157.226, 502.318 161.692 L 499.136 162.500 509.576 180.692 L 520.016 198.885 517.994 204.014 C 511.810 219.704, 514.453 239.142, 524.612 252.683 C 525.925 254.434, 527 256.561, 527 257.409 C 527 258.257, 523.836 270.759, 519.968 285.190 C 516.100 299.621, 513.063 312.075, 513.218 312.865 C 513.482 314.207, 521.140 316.454, 563.500 327.621 C 569 329.071, 582.305 332.675, 593.066 335.629 C 611.390 340.659, 616 341.648, 616 340.550 C 616 340.303, 614.461 337.545, 612.580 334.422 C 609.378 329.107, 608.594 328.492, 600.330 324.811 C 595.473 322.648, 589.967 320.176, 588.092 319.317 C 586.218 318.459, 581.718 316.504, 578.092 314.974 C 565.098 309.488, 552.678 304.011, 552.240 303.573 C 551.995 303.328, 552.911 300.736, 554.276 297.814 C 555.641 294.891, 558.636 288.427, 560.932 283.448 L 565.106 274.396 573.303 272.847 C 577.811 271.995, 584.125 270.056, 587.333 268.537 C 593.476 265.630, 604.855 255.753, 607.775 250.795 C 609.711 247.509, 607.744 247.558, 631.840 250.185 L 642.181 251.312 641.502 258.906 C 641.129 263.083, 639.583 276.850, 638.065 289.500 L 635.307 312.500 638.864 319.250 C 640.820 322.962, 642.677 326, 642.989 326 C 643.301 326, 644.366 322.738, 645.354 318.750 C 646.343 314.762, 647.749 309.475, 648.478 307 C 649.208 304.525, 651.023 297.775, 652.512 292 C 654.001 286.225, 655.608 280.150, 656.082 278.500 C 659.137 267.875, 660.088 264.409, 662.530 255 C 664.028 249.225, 666.581 239.621, 668.202 233.658 C 669.822 227.694, 670.997 222.663, 670.811 222.478 C 670.626 222.292, 665.530 220.793, 659.487 219.146 C 653.444 217.499, 641.525 214.250, 633 211.926 C 624.475 209.603, 616.905 207.693, 616.179 207.684 C 615.452 207.674, 613.342 204.659, 611.491 200.982 C 603.688 185.487, 588.951 174.560, 572.704 172.221 L 567.601 171.487 557.550 154.058 C 552.023 144.472, 547.050 136.521, 546.500 136.390 C 545.950 136.258, 542.537 139.178, 538.915 142.878 M 216.500 178.505 C 200.947 182.499, 188.582 190.435, 178.530 202.877 C 161.275 224.233, 158.248 252.653, 170.597 277.357 C 173.832 283.828, 176.346 287.158, 183.500 294.445 C 191.331 302.421, 200.553 308.333, 210.487 311.747 C 217.739 314.238, 219.830 314.500, 232.500 314.500 C 243.615 314.500, 247.633 314.111, 252 312.612 C 264.046 308.476, 273.445 302.417, 282.651 292.852 C 296.660 278.297, 303.542 258.014, 301.056 238.611 C 299.027 222.768, 292.831 209.866, 281.653 198.207 C 271.612 187.733, 261.627 182.034, 247 178.427 C 240.176 176.745, 223.187 176.788, 216.500 178.505 M 557 191.876 C 551.184 193.788, 545.990 197.217, 541.729 201.956 C 525.346 220.179, 536.056 250.209, 560.217 253.790 C 575.916 256.117, 590.746 247.312, 595.566 232.803 C 597.855 225.909, 597.149 215.019, 594.003 208.721 C 591.003 202.713, 585.304 197.006, 579.323 194.019 C 574.221 191.471, 561.846 190.283, 557 191.876 M 220.351 204.902 C 199.747 210.799, 186.340 231.907, 189.968 252.739 C 194.908 281.108, 224.891 296.890, 250.500 284.601 C 265.911 277.205, 275 262.841, 275 245.879 C 275 217.376, 247.863 197.029, 220.351 204.902 M 557.020 205.250 C 548.126 209.794, 543.853 219.965, 546.926 229.276 C 548.500 234.045, 555.826 240.689, 560.473 241.561 C 572.614 243.838, 583.306 236.657, 584.648 225.323 C 586.524 209.486, 570.919 198.149, 557.020 205.250 M 224.500 216.339 C 214.980 219.493, 208.183 225.264, 204.386 233.419 C 202.556 237.348, 202.017 240.221, 202.010 246.090 C 201.997 256.315, 205.814 264.326, 213.349 269.885 C 220.505 275.163, 224.405 276.504, 232.500 276.473 C 244.113 276.428, 254.257 270.149, 259.814 259.563 C 262.086 255.236, 262.472 253.265, 262.472 246 C 262.472 238.730, 262.088 236.776, 259.822 232.500 C 252.881 219.401, 237.080 212.172, 224.500 216.339 M 311.555 266.721 C 304.483 294.874, 281.164 318.213, 253.082 325.245 C 250.562 325.876, 248.167 326.659, 247.760 326.986 C 247.353 327.313, 257.163 339.712, 269.560 354.540 C 281.957 369.368, 298.715 389.473, 306.800 399.217 C 314.885 408.961, 321.745 416.949, 322.045 416.967 C 322.344 416.985, 323.396 413.063, 324.381 408.250 C 328.629 387.504, 343.620 364.898, 361 353.028 C 372.197 345.381, 386.914 339.132, 397.772 337.413 C 400.122 337.042, 402.250 336.405, 402.501 335.998 C 402.752 335.592, 395.430 328.971, 386.229 321.286 C 377.028 313.600, 356.829 296.719, 341.342 283.772 L 313.185 260.233 311.555 266.721 M 407.500 349.168 C 391.830 350.475, 380.513 354.989, 366.295 365.602 C 333.573 390.027, 325.125 436.855, 347.231 471.275 C 352.588 479.617, 366.036 492.544, 374.665 497.645 C 429.004 529.772, 498.184 487.612, 494.688 424.500 C 493.521 403.424, 486.015 387.058, 470.316 371.360 C 453.911 354.954, 431.793 347.140, 407.500 349.168 M 404.725 381.566 C 389.706 385.205, 378.558 394.032, 371.827 407.618 C 367.943 415.456, 367.643 416.671, 367.228 426.251 C 366.851 434.946, 367.118 437.486, 368.984 443 C 375.068 460.969, 389.714 473.441, 408.069 476.282 C 436.185 480.634, 463 457.567, 463 429.029 C 463 405.812, 447.114 386.310, 424.257 381.467 C 416.040 379.725, 412.242 379.745, 404.725 381.566 M 410.226 393.161 C 406.775 393.559, 401.825 394.923, 399.226 396.192 C 392.709 399.375, 385.398 406.915, 382.188 413.764 C 379.845 418.763, 379.506 420.720, 379.547 429 C 379.586 436.846, 380 439.332, 381.921 443.280 C 385.567 450.767, 392.282 457.521, 399.727 461.186 C 405.666 464.110, 407.180 464.428, 414.912 464.374 C 422.069 464.324, 424.437 463.869, 429.124 461.644 C 437.446 457.693, 443.406 451.952, 447.213 444.218 C 450.193 438.166, 450.500 436.698, 450.500 428.521 C 450.500 420.659, 450.139 418.765, 447.692 413.782 C 440.466 399.067, 426.357 391.302, 410.226 393.161 M 325.763 497.750 C 306.482 537.335, 304.071 542.405, 304.383 542.716 C 304.749 543.082, 525.238 543.107, 525.567 542.742 C 525.687 542.609, 521.195 533.050, 515.585 521.500 C 509.975 509.950, 502.919 495.369, 499.904 489.098 L 494.422 477.695 489.136 484.421 C 479.440 496.759, 470.322 504.380, 457.265 511.057 C 443.100 518.301, 431.811 520.943, 414.878 520.976 C 404.647 520.995, 400.385 520.526, 392.378 518.495 C 373.336 513.667, 354.484 501.793, 342.750 487.239 C 339.587 483.316, 337 479.633, 337 479.053 C 337 475.702, 334.372 480.075, 325.763 497.750 M 251 579.503 L 251 603.006 414.750 602.753 L 578.500 602.500 578.768 579.250 L 579.037 556 415.018 556 L 251 556 251 579.503" stroke="none" fill="black" fill-rule="evenodd"/>
</svg>